<svg width="20" height="18" viewBox="0 0 20 18" fill="none" xmlns="http://www.w3.org/2000/svg">
<path fill-rule="evenodd" clip-rule="evenodd" d="M1.35288 0H5.1617C5.76023 0 6.24994 0.45 6.24994 1C6.24994 2.25 6.46758 3.45 6.87023 4.57C6.98993 4.92 6.90288 5.31 6.59817 5.59L4.20406 7.79C5.77111 10.62 8.29582 12.93 11.3755 14.38L13.7696 12.18C13.9873 11.99 14.2593 11.89 14.5423 11.89C14.6511 11.89 14.7708 11.9 14.8796 11.94C16.0985 12.31 17.4152 12.51 18.7646 12.51C19.3632 12.51 19.8529 12.96 19.8529 13.51V17C19.8529 17.55 19.3632 18 18.7646 18C8.54611 18 0.264648 10.39 0.264648 1C0.264648 0.45 0.754354 0 1.35288 0ZM4.117 2C4.18229 2.89 4.34553 3.76 4.6067 4.59L3.30082 5.79C2.85465 4.59 2.57171 3.32 2.47377 2H4.117ZM14.847 14.02C15.772 14.26 16.7187 14.41 17.6764 14.47V15.96C16.2399 15.87 14.8579 15.61 13.5411 15.21L14.847 14.02Z" fill="#FE0000"/>
</svg>
