<svg width="20" height="18" viewBox="0 0 20 18" fill="none" xmlns="http://www.w3.org/2000/svg">
<path fill-rule="evenodd" clip-rule="evenodd" d="M13.2855 11.255H14.1452L19.5755 16.255L17.954 17.745L12.5128 12.755V11.965L12.219 11.685C10.9784 12.665 9.36783 13.255 7.61577 13.255C3.709 13.255 0.542236 10.345 0.542236 6.755C0.542236 3.165 3.709 0.255005 7.61577 0.255005C11.5225 0.255005 14.6893 3.165 14.6893 6.755C14.6893 8.365 14.0473 9.845 12.9808 10.985L13.2855 11.255ZM2.71871 6.755C2.71871 9.245 4.90606 11.255 7.61577 11.255C10.3255 11.255 12.5128 9.245 12.5128 6.755C12.5128 4.26501 10.3255 2.255 7.61577 2.255C4.90606 2.255 2.71871 4.26501 2.71871 6.755Z" fill="#4B4B4B"/>
</svg>
